<svg xmlns="http://www.w3.org/2000/svg" fill="none" viewBox="0 0 128 128"><defs><clipPath id="a"><circle cx="64" cy="64" r="50"/></clipPath></defs><circle cx="64" cy="64" r="50" fill="#bfd7d7"/><g clip-path="url(#a)"><circle cx="66" cy="56" r="23" fill="#d8ab85"/><circle cx="64" cy="54" r="23" fill="#ecddba"/><path fill="#eee6db" d="M42 42c2-14 13-22 25-22 8 0 15 2 21 7 0 10-8 16-17 18 4-4 6-8 5-13-3 6-9 12-17 14-7 2-13 2-17 0-1-1 0-3 0-4"/><ellipse cx="76" cy="106" fill="#dabf9a" rx="31" ry="23"/><ellipse cx="52" cy="106" fill="#e8cea9" rx="31" ry="23"/><path fill="#6bb4d3" d="M38 84c10-5 41-5 52 0v8H38z"/></g></svg>