<svg xmlns="http://www.w3.org/2000/svg" fill="none" viewBox="0 0 128 128"><defs><clipPath id="a"><circle cx="64" cy="64" r="50"/></clipPath></defs><circle cx="64" cy="64" r="50" fill="#a1a3b9"/><g clip-path="url(#a)"><circle cx="66" cy="56" r="23" fill="#d8ac86"/><circle cx="64" cy="54" r="23" fill="#ece0be"/><path fill="#49566e" d="M41 44c2-14 14-22 28-22 10 0 18 4 23 12-4 11-16 17-29 17-8 0-16-2-22-7"/><ellipse cx="76" cy="106" fill="#c3c1ca" rx="31" ry="23"/><ellipse cx="52" cy="106" fill="#d0ced6" rx="31" ry="23"/><path fill="#b5b3bd" d="M56 77c6 1 17 1 25 5-8 2-18 2-25-5"/></g></svg>