<svg xmlns="http://www.w3.org/2000/svg" fill="none" viewBox="0 0 512 512"><defs><clipPath id="a"><circle cx="256" cy="256" r="230"/></clipPath></defs><circle cx="256" cy="256" r="230" fill="#c2b5e2"/><g clip-path="url(#a)"><circle cx="262" cy="211" r="108" fill="#d9a885"/><circle cx="254" cy="204" r="108" fill="#ead8b7"/><path fill="#37349f" d="M135 170c20-52 72-86 129-86 25 0 49 7 69 20-19 73-89 116-158 98-15-4-29-11-40-20z"/><ellipse cx="286" cy="426" fill="#4e79e8" rx="150" ry="118"/><ellipse cx="220" cy="430" fill="#fa5f68" rx="150" ry="118"/><path fill="#4169de" d="M160 358c48-28 144-28 192 0-31 22-161 22-192 0"/></g></svg>