<svg xmlns="http://www.w3.org/2000/svg" fill="none" viewBox="0 0 128 128"><defs><clipPath id="a"><circle cx="64" cy="64" r="50"/></clipPath></defs><circle cx="64" cy="64" r="50" fill="#f2d34b"/><g clip-path="url(#a)"><circle cx="66" cy="56" r="23" fill="#d9ac86"/><circle cx="64" cy="54" r="23" fill="#ece0be"/><path fill="#5445b2" d="M42 45c0-15 10-24 24-24 12 0 22 7 25 18-5 9-16 14-28 14-8 0-15-2-21-8"/><ellipse cx="76" cy="106" fill="#fbb004" rx="31" ry="23"/><ellipse cx="52" cy="106" fill="#f8c130" rx="31" ry="23"/><path fill="#d99700" d="M59 77c9 0 16 1 23 4-8 2-15 2-23-4"/></g></svg>