<svg xmlns="http://www.w3.org/2000/svg" fill="none" viewBox="0 0 128 128"><defs><clipPath id="a"><circle cx="64" cy="64" r="50"/></clipPath></defs><circle cx="64" cy="64" r="50" fill="#d2cde0"/><g clip-path="url(#a)"><circle cx="66" cy="56" r="23" fill="#dbae88"/><circle cx="64" cy="54" r="23" fill="#ece1be"/><path fill="#d74e61" d="M37 52c0-10 14-17 30-17 13 0 24 5 26 12 1 4-2 7-7 7-11-2-27 0-49 8z"/><ellipse cx="76" cy="106" fill="#f0d57a" rx="31" ry="23"/><ellipse cx="52" cy="106" fill="#ede1a8" rx="31" ry="23"/><path fill="#e5c355" d="M56 76c9 0 17 1 24 4-8 2-16 2-24-4"/></g></svg>