<svg xmlns="http://www.w3.org/2000/svg" fill="none" viewBox="0 0 128 128"><defs><clipPath id="a"><circle cx="64" cy="64" r="50"/></clipPath></defs><circle cx="64" cy="64" r="50" fill="#b6d4eb"/><g clip-path="url(#a)"><circle cx="66" cy="56" r="23" fill="#dbae88"/><circle cx="64" cy="54" r="23" fill="#ede2be"/><path fill="#f27789" d="M42 44c0-15 10-24 24-24s24 9 24 22c0 7-4 12-11 14-8 2-14 2-23 2-6 0-10 3-11 8-1 4-5 7-9 7s-8-4-8-9c0-7 6-13 14-20"/><ellipse cx="76" cy="106" fill="#8e6fc4" rx="31" ry="23"/><ellipse cx="52" cy="106" fill="#a185d2" rx="31" ry="23"/></g></svg>